{"title":"Blue Eyes - Yo Yo Honey Singh - Video Song - Full HD 1080p - Cod","uid":9230734,"size":151337964,"categoryP":"video","categoryS":"music_videos","magnet":"?xt=urn:btih:2f50c285d33830d970434f61b3bb8e1381105c97&amp;dn=Blue+Eyes+-+Yo+Yo+Honey+Singh+-+Video+Song+-+Full+HD+1080p+-+Cod&amp;tr=udp%3A%2F%2Ftracker.openbittorrent.com%3A80&amp;tr=udp%3A%2F%2Fopen.demonii.com%3A1337&amp;tr=udp%3A%2F%2Ftracker.coppersurfer.tk%3A6969&amp;tr=udp%3A%2F%2Fexodus.desync.com%3A6969","seeders":2,"leechers":0,"uploader":"TheCodeGuru","files":1,"time":1385065974,"description":"General\nComplete name                            : Blue Eyes - Yo Yo Honey Singh - Video Song - Full HD 1080p - CodeGuru.mp4\nFormat                                   : MPEG-4\nFormat profile                           : Base Media / Version 2\nCodec ID                                 : mp42\nFile size                                : 144 MiB\nDuration                                 : 4mn 2s\nOverall bit rate mode                    : Variable\nOverall bit rate                         : 4 987 Kbps\nEncoded date                             : UTC 2013-11-21 13:12:32\nTagged date                              : UTC 2013-11-21 14:14:53\n\n\nVideo\nID                                       : 1\nFormat                                   : AVC\nFormat/Info                              : Advanced Video Codec\nFormat profile                           : &lt;a class=&quot;__cf_email__&quot; href=&quot;/cdn-cgi/l/email-protection&quot; data-cfemail=&quot;dc94b5bbb49c90e8f2ec&quot;&gt;[email&amp;#160;protected]&lt;/a&gt;&lt;script cf-hash='f9e31' type=&quot;text/javascript&quot;&gt;\n/* &lt;![CDATA[ */!function(){try{var t=&quot;currentScript&quot;in document?document.currentScript:function(){for(var t=document.getElementsByTagName(&quot;script&quot;),e=t.length;e--;)if(t[e].getAttribute(&quot;cf-hash&quot;))return t[e]}();if(t&amp;&amp;t.previousSibling){var e,r,n,i,c=t.previousSibling,a=c.getAttribute(&quot;data-cfemail&quot;);if(a){for(e=&quot;&quot;,r=parseInt(a.substr(0,2),16),n=2;a.length-n;n+=2)i=parseInt(a.substr(n,2),16)^r,e+=String.fromCharCode(i);e=document.createTextNode(e),c.parentNode.replaceChild(e,c)}}}catch(u){}}();/* ]]&gt; */&lt;/script&gt;\nFormat settings, CABAC                   : Yes\nFormat settings, ReFrames                : 4 frames\nCodec ID                                 : avc1\nCodec ID/Info                            : Advanced Video Coding\nDuration                                 : 4mn 2s\nBit rate mode                            : Variable\nBit rate                                 : 4 728 Kbps\nWidth                                    : 1 920 pixels\nHeight                                   : 1 080 pixels\nDisplay aspect ratio                     : 16:9\nFrame rate mode                          : Variable\nFrame rate                               : 23.976 fps\nMinimum frame rate                       : 23.968 fps\nMaximum frame rate                       : 23.981 fps\nColor space                              : YUV\nChroma subsampling                       : 4:2:0\nBit depth                                : 8 bits\nScan type                                : Progressive\nBits/(Pixel*Frame)                       : 0.095\nStream size                              : 137 MiB (95%)\nWriting library                          : x264 core 130 r2273 b3065e6\nEncoded date                             : UTC 2013-11-21 13:12:32\nTagged date                              : UTC 2013-11-21 14:14:53\nColor primaries                          : BT.709\nTransfer characteristics                 : BT.709\nMatrix coefficients                      : BT.709\n\nAudio\nID                                       : 2\nFormat                                   : AAC\nFormat/Info                              : Advanced Audio Codec\nFormat profile                           : LC\nCodec ID                                 : 40\nDuration                                 : 4mn 2s\nBit rate mode                            : Variable\nBit rate                                 : 256 Kbps\nMaximum bit rate                         : 355 Kbps\nChannel(s)                               : 2 channels\nChannel positions                        : Front: L R\nSampling rate                            : 44.1 KHz\nCompression mode                         : Lossy\nDelay relative to video                  : 83ms\nStream size                              : 7.41 MiB (5%)\nEncoded date                             : UTC 2013-11-21 13:12:32\nTagged date                              : UTC 2013-11-21 14:13:32\n","torrent":{"xt":"urn:btih:2f50c285d33830d970434f61b3bb8e1381105c97","amp;dn":"Blue+Eyes+-+Yo+Yo+Honey+Singh+-+Video+Song+-+Full+HD+1080p+-+Cod","amp;tr":["udp%3A%2F%2Ftracker.openbittorrent.com%3A80","udp%3A%2F%2Fopen.demonii.com%3A1337","udp%3A%2F%2Ftracker.coppersurfer.tk%3A6969","udp%3A%2F%2Fexodus.desync.com%3A6969"],"infoHash":"2f50c285d33830d970434f61b3bb8e1381105c97","infoHashBuffer":{"type":"Buffer","data":[47,80,194,133,211,56,48,217,112,67,79,97,179,187,142,19,129,16,92,151]},"announce":[],"urlList":[]}}